# xmcd
#
# Track frame offsets:
#	150
#	14008
#	29385
#	44295
#	59533
#	74380
#	90175
#	104653
#	119510
#	131843
#	150763
#	172815
#	190370
#	209348
#	232230
#
# Disc length: 3391 seconds
#
# Revision: 1
# Processed by: cddbd v1.5.1PL0 Copyright (c) Steve Scherf et al.
# Submitted via: CDex 1.50Beta5
#
DISCID=d20d3d0f
DTITLE=美空ひばり - 美空ひばりメモリアル2
DYEAR=1900
DGENRE=Pop
TTITLE0=東京キッド
TTITLE1=私は街の子
TTITLE2=あの丘越えて
TTITLE3=お祭りマンボ
TTITLE4=ひばりのマドロスさん
TTITLE5=港は別れてゆくところ
TTITLE6=浜っ子マドロス
TTITLE7=花笠道中
TTITLE8=車屋さん
TTITLE9=哀愁出船
TTITLE10=悲しい酒
TTITLE11=人生一路
TTITLE12=裏町酒場
TTITLE13=愛燦燦
TTITLE14=川の流れのように
EXTD=
EXTT0=
EXTT1=
EXTT2=
EXTT3=
EXTT4=
EXTT5=
EXTT6=
EXTT7=
EXTT8=
EXTT9=
EXTT10=
EXTT11=
EXTT12=
EXTT13=
EXTT14=
PLAYORDER=
